<?xml version="1.0" standalone="no"?>
<!DOCTYPE svg>
<svg version="1.0"
    xmlns="http://www.w3.org/2000/svg" width="32.000000pt" height="32.000000pt" viewBox="0 0 32.000000 32.000000" preserveAspectRatio="xMidYMid meet">

    <g transform="translate(0.000000,32.000000) scale(0.100000,-0.100000)" fill="#000000" stroke="none">
        <path d="M79 247 c-19 -12 -44 -42 -56 -67 -24 -46 -30 -114 -12 -125 7 -5 8
6 5 32 l-6 38 10 -33 c9 -28 13 -31 30 -22 17 9 18 14 8 35 -10 22 -8 30 10
53 12 15 28 37 34 50 9 18 17 22 37 17 33 -8 121 -67 121 -81 0 -12 -43 -34
-66 -34 -8 0 -12 -5 -9 -10 3 -6 15 -10 26 -10 11 0 33 -7 49 -15 29 -15 29
-15 40 17 l10 33 -6 -38 c-3 -26 -2 -37 5 -32 18 11 12 79 -11 125 -44 87
-144 117 -219 67z m149 -7 c34 -21 72 -74 72 -100 0 -8 -9 4 -20 27 -49 109
-191 109 -240 0 -11 -23 -20 -35 -20 -27 0 8 9 30 20 48 42 68 124 91 188 52z"/>
    </g>
    <style>
        path { fill: #000; }
        @media (prefers-color-scheme: dark) {
            path { fill: #FFF; }
        }
    </style>
</svg>
