<svg width="477" height="137" viewBox="0 0 477 137" fill="none" xmlns="http://www.w3.org/2000/svg">
<path d="M20.0736 85.9771C21.5154 85.9771 22.2917 85.2008 22.2917 83.7591V36.514C22.2917 35.0722 21.5154 34.2959 20.0736 34.2959H4.43616C2.99441 34.2959 2.32898 35.0722 2.32898 36.514V83.7591C2.32898 85.2008 3.10531 85.9771 4.43616 85.9771H20.0736ZM62.8826 29.3052C60.6645 28.5289 57.2265 27.9743 54.2321 27.9743C40.2582 27.9743 31.164 37.5121 31.164 52.595V62.2437C31.164 76.9939 41.589 87.4189 57.4483 87.4189C65.1006 87.4189 74.4166 85.8662 81.1817 83.4263C82.4017 82.9827 82.9562 82.0955 82.9562 80.9865V10.7842C82.9562 9.34247 82.1799 8.56615 80.7381 8.56615H65.1006C63.6589 8.56615 62.8826 9.34247 62.8826 10.7842V29.3052ZM51.5704 62.7982V52.0405C51.5704 47.4935 53.7884 45.1645 57.781 45.1645C59.7773 45.1645 61.4408 45.4972 62.9935 46.0517V68.8979C61.4408 69.4524 59.7773 69.7852 57.8919 69.7852C53.7884 69.7852 51.5704 67.4562 51.5704 62.9091V62.7982ZM142.623 51.5969C142.623 34.9613 132.53 27.9743 117.891 27.9743C102.697 27.9743 91.8285 35.1831 91.8285 51.5969V63.6854C91.8285 79.212 102.919 87.4189 118.556 87.4189C128.538 87.4189 135.525 84.5354 140.737 80.5428C141.846 79.6556 141.846 78.5466 141.07 77.5484L134.637 68.6761C133.861 67.5671 132.863 67.3453 131.754 68.1216C128.094 70.2288 123.769 71.116 119.444 71.116C114.675 71.116 112.124 68.787 112.124 64.24V63.6854H140.626C142.068 63.6854 142.844 62.9091 142.844 61.4674V51.486L142.623 51.5969ZM123.436 50.377V52.1514H111.902V50.377C111.902 46.1626 113.898 43.9445 117.669 43.9445C121.44 43.9445 123.547 46.1626 123.547 50.377H123.436ZM25.0643 12.8914C25.0643 5.57174 19.9627 0.470154 12.6431 0.470154C5.10158 0.470154 0 5.57174 0 12.8914C0 16.2185 1.21994 19.3238 3.32712 21.5419L12.4212 31.0797C13.863 29.527 21.8481 21.5419 21.8481 21.5419C23.9553 19.3238 25.0643 16.3294 25.0643 12.8914ZM12.3103 8.23343C14.4175 8.23343 16.0811 9.89699 16.0811 12.0042C16.0811 14.1113 14.4175 15.7749 12.3103 15.7749C10.2032 15.7749 8.53961 14.1113 8.53961 12.0042C8.53961 9.89699 10.2032 8.23343 12.3103 8.23343ZM174.341 30.9688C174.341 30.8579 174.23 30.7469 174.119 30.7469H172.899C172.788 30.7469 172.678 30.8579 172.678 30.9688V52.1514C172.678 52.2623 172.788 52.3732 172.899 52.3732H174.119C174.23 52.3732 174.341 52.2623 174.341 52.1514V30.9688ZM180.774 52.3732C180.884 52.3732 180.995 52.2623 180.995 52.1514V38.6211C182.215 38.1775 183.768 37.8448 185.21 37.8448C188.426 37.8448 190.2 39.2866 190.2 42.7246V52.0405C190.2 52.1514 190.311 52.2623 190.422 52.2623H191.531C191.642 52.2623 191.753 52.1514 191.753 52.0405V42.6137C191.753 38.2884 189.202 36.2921 185.21 36.2921C183.213 36.2921 181.217 36.7358 179.554 37.5121C179.443 37.623 179.332 37.7339 179.332 37.8448V52.0405C179.332 52.1514 179.443 52.2623 179.554 52.2623H180.663L180.774 52.3732ZM202.843 31.9669C202.954 31.9669 203.065 31.856 203.065 31.7451V30.8579C203.065 30.7469 202.954 30.636 202.843 30.636C202.289 30.5251 201.513 30.5251 201.069 30.5251C198.185 30.5251 196.189 32.4105 196.189 35.7376V52.2623C196.189 52.3732 196.3 52.4841 196.411 52.4841H197.52C197.631 52.4841 197.742 52.3732 197.742 52.2623V38.3993H202.622C202.733 38.3993 202.843 38.2884 202.843 38.1775V37.2903C202.843 37.1794 202.733 37.0685 202.622 37.0685H197.742V35.8485C197.742 33.5195 198.962 32.0778 201.18 32.0778C201.623 32.0778 202.289 32.0778 202.843 32.1887V31.9669ZM206.947 52.3732C207.058 52.3732 207.169 52.2623 207.169 52.1514V38.6211C208.278 38.1775 209.719 37.8448 211.05 37.8448C211.938 37.8448 213.047 37.9557 213.934 38.0666C214.045 38.0666 214.156 37.9557 214.156 37.8448V36.9576C214.156 36.8467 214.045 36.7358 213.934 36.7358C212.936 36.6249 211.827 36.514 210.829 36.514C209.054 36.514 207.169 36.9576 205.727 37.623C205.616 37.7339 205.505 37.8448 205.505 37.9557V52.2623C205.505 52.3732 205.616 52.4841 205.727 52.4841H206.836L206.947 52.3732ZM216.374 37.9557C216.263 38.0666 216.263 38.1775 216.374 38.2884L216.928 39.0647C217.039 39.1757 217.15 39.1757 217.261 39.1757C218.37 38.5102 220.034 37.9557 221.919 37.9557C225.024 37.9557 226.133 39.5084 226.133 42.281V43.6118C225.024 43.39 223.472 43.1682 221.919 43.1682C218.037 43.1682 215.597 44.8318 215.597 47.9371C215.597 51.2642 218.481 52.8168 221.919 52.8168C224.137 52.8168 226.244 52.2623 227.575 51.8187C227.686 51.7078 227.797 51.5969 227.797 51.486V42.281C227.797 38.6211 225.801 36.514 222.03 36.514C219.701 36.514 217.815 37.1794 216.485 38.0666L216.374 37.9557ZM217.15 47.7153C217.15 45.6081 218.703 44.3881 221.919 44.3881C223.472 44.3881 225.024 44.6099 226.133 44.8318V50.4879C225.024 50.8206 223.582 51.2642 221.919 51.2642C219.146 51.2642 217.15 50.0442 217.15 47.8262V47.7153ZM243.878 42.281C243.878 38.3993 241.105 36.4031 237.778 36.4031C234.34 36.4031 231.568 38.3993 231.568 42.281V47.0498C231.568 50.7097 234.562 52.7059 237.778 52.7059C240.329 52.7059 242.214 51.5969 243.656 50.377C243.767 50.2661 243.767 50.1551 243.656 50.0442L243.102 49.3788C242.991 49.2679 242.88 49.2679 242.769 49.2679C241.66 50.2661 240.107 51.1533 237.778 51.1533C235.227 51.1533 233.231 49.6006 233.231 47.0498V45.3863H243.656C243.767 45.3863 243.878 45.2754 243.878 45.1645V42.281ZM242.325 42.281V44.0554H233.12V42.281C233.12 39.3975 234.895 37.8448 237.667 37.8448C240.329 37.8448 242.214 39.3975 242.214 42.281H242.325ZM258.406 48.1589C258.406 44.9427 255.412 44.2772 252.861 43.7227C250.532 43.2791 248.425 42.6137 248.425 40.6174C248.425 38.9538 249.978 37.9557 252.418 37.9557C254.081 37.9557 255.745 38.3993 257.075 39.1757C257.186 39.2866 257.408 39.1757 257.408 39.0647L257.852 38.2884C257.963 38.1775 257.963 38.0666 257.741 37.9557C256.188 37.0685 254.525 36.514 252.418 36.514C249.423 36.514 246.761 37.9557 246.761 40.6174C246.761 43.8336 250.089 44.7209 252.528 45.2754C254.525 45.719 256.743 46.1626 256.743 48.2698C256.743 50.2661 254.968 51.2642 252.528 51.2642C250.643 51.2642 248.979 50.5988 247.427 49.4897C247.316 49.3788 247.205 49.3788 247.094 49.6006L246.54 50.4879C246.429 50.5988 246.429 50.7097 246.65 50.8206C248.314 52.1514 250.31 52.8168 252.528 52.8168C256.188 52.8168 258.406 51.0424 258.406 48.2698V48.1589ZM263.286 47.4935V38.2884H267.944C268.055 38.2884 268.166 38.1775 268.166 38.0666V37.1794C268.166 37.0685 268.055 36.9576 267.944 36.9576H263.286L263.175 33.2977C263.175 33.1868 263.064 33.0759 262.953 33.0759H261.955C261.844 33.0759 261.733 33.1868 261.733 33.2977V47.7153C261.733 51.0424 263.619 52.8168 266.613 52.8168C267.057 52.8168 267.833 52.8168 268.388 52.7059C268.609 52.7059 268.609 52.595 268.609 52.4841V51.486C268.609 51.2642 268.499 51.2642 268.388 51.2642C267.833 51.2642 267.168 51.3751 266.724 51.3751C264.506 51.3751 263.397 49.9333 263.397 47.7153L263.286 47.4935ZM272.491 52.3732C272.602 52.3732 272.713 52.2623 272.713 52.1514V38.6211C273.822 38.1775 275.264 37.8448 276.595 37.8448C277.482 37.8448 278.591 37.9557 279.478 38.0666C279.589 38.0666 279.7 37.9557 279.7 37.8448V36.9576C279.7 36.8467 279.589 36.7358 279.478 36.7358C278.48 36.6249 277.371 36.514 276.373 36.514C274.598 36.514 272.713 36.9576 271.271 37.623C271.16 37.7339 271.049 37.8448 271.049 37.9557V52.2623C271.049 52.3732 271.16 52.4841 271.271 52.4841H272.38L272.491 52.3732ZM293.23 36.7358C293.008 36.7358 293.008 36.8467 293.008 36.9576V50.377C291.899 50.8206 290.347 51.1533 288.905 51.1533C285.8 51.1533 284.025 49.6006 284.025 46.2735V36.9576C284.025 36.7358 283.914 36.7358 283.803 36.7358H282.694C282.583 36.7358 282.472 36.8467 282.472 36.9576V46.2735C282.472 50.5988 285.023 52.595 288.905 52.595C290.901 52.595 292.787 52.1514 294.45 51.3751C294.561 51.2642 294.672 51.1533 294.672 51.0424V36.8467C294.672 36.6249 294.561 36.6249 294.45 36.6249H293.341L293.23 36.7358ZM309.977 50.8206C310.088 50.7097 310.088 50.5988 309.977 50.4879L309.422 49.7115C309.311 49.6006 309.2 49.6006 309.089 49.7115C307.648 50.7097 306.206 51.2642 304.653 51.2642C301.659 51.2642 299.995 49.3788 299.995 46.9389V42.1701C299.995 39.7302 301.659 37.9557 304.653 37.9557C306.206 37.9557 307.426 38.3993 308.757 39.2866C308.868 39.3975 308.979 39.2866 309.089 39.1757L309.644 38.3993C309.755 38.2884 309.755 38.1775 309.533 38.0666C308.091 37.0685 306.428 36.514 304.653 36.514C300.772 36.514 298.443 38.9538 298.443 42.281V47.0498C298.443 50.2661 300.772 52.8168 304.653 52.8168C306.76 52.8168 308.424 52.1514 309.977 50.9315V50.8206ZM314.635 47.4935V38.2884H319.293C319.404 38.2884 319.514 38.1775 319.514 38.0666V37.1794C319.514 37.0685 319.404 36.9576 319.293 36.9576H314.635L314.524 33.2977C314.524 33.1868 314.413 33.0759 314.302 33.0759H313.304C313.193 33.0759 313.082 33.1868 313.082 33.2977V47.7153C313.082 51.0424 314.967 52.8168 317.962 52.8168C318.405 52.8168 319.182 52.8168 319.736 52.7059C319.958 52.7059 319.958 52.595 319.958 52.4841V51.486C319.958 51.2642 319.847 51.2642 319.736 51.2642C319.182 51.2642 318.516 51.3751 318.073 51.3751C315.855 51.3751 314.746 49.9333 314.746 47.7153L314.635 47.4935ZM333.267 36.7358C333.045 36.7358 333.045 36.8467 333.045 36.9576V50.377C331.936 50.8206 330.383 51.1533 328.941 51.1533C325.836 51.1533 324.061 49.6006 324.061 46.2735V36.9576C324.061 36.7358 323.951 36.7358 323.84 36.7358H322.731C322.62 36.7358 322.509 36.8467 322.509 36.9576V46.2735C322.509 50.5988 325.06 52.595 328.941 52.595C330.938 52.595 332.823 52.1514 334.486 51.3751C334.597 51.2642 334.708 51.1533 334.708 51.0424V36.8467C334.708 36.6249 334.597 36.6249 334.486 36.6249H333.377L333.267 36.7358ZM340.364 52.3732C340.475 52.3732 340.586 52.2623 340.586 52.1514V38.6211C341.695 38.1775 343.137 37.8448 344.468 37.8448C345.355 37.8448 346.464 37.9557 347.351 38.0666C347.462 38.0666 347.573 37.9557 347.573 37.8448V36.9576C347.573 36.8467 347.462 36.7358 347.351 36.7358C346.353 36.6249 345.244 36.514 344.246 36.514C342.472 36.514 340.586 36.9576 339.144 37.623C339.034 37.7339 338.923 37.8448 338.923 37.9557V52.2623C338.923 52.3732 339.034 52.4841 339.144 52.4841H340.253L340.364 52.3732ZM349.791 37.9557C349.68 38.0666 349.68 38.1775 349.791 38.2884L350.346 39.0647C350.457 39.1757 350.568 39.1757 350.678 39.1757C351.787 38.5102 353.451 37.9557 355.336 37.9557C358.442 37.9557 359.551 39.5084 359.551 42.281V43.6118C358.442 43.39 356.889 43.1682 355.336 43.1682C351.455 43.1682 349.015 44.8318 349.015 47.9371C349.015 51.2642 351.898 52.8168 355.336 52.8168C357.554 52.8168 359.662 52.2623 360.993 51.8187C361.103 51.7078 361.214 51.5969 361.214 51.486V42.281C361.214 38.6211 359.218 36.514 355.447 36.514C353.118 36.514 351.233 37.1794 349.902 38.0666L349.791 37.9557ZM350.568 47.7153C350.568 45.6081 352.12 44.3881 355.336 44.3881C356.889 44.3881 358.442 44.6099 359.551 44.8318V50.4879C358.442 50.8206 357 51.2642 355.336 51.2642C352.564 51.2642 350.568 50.0442 350.568 47.8262V47.7153ZM382.619 37.5121C381.399 36.7358 379.846 36.2921 378.294 36.2921C374.412 36.2921 371.861 38.5102 371.861 42.7246V46.0517C371.861 50.5988 374.523 52.595 378.404 52.595C380.29 52.595 382.397 52.1514 384.061 51.486C384.171 51.486 384.282 51.3751 384.282 51.2642V30.8579C384.282 30.7469 384.171 30.636 384.061 30.636H382.952C382.841 30.636 382.73 30.7469 382.73 30.8579V37.5121H382.619ZM373.414 46.0517V42.7246C373.414 39.1757 375.188 37.7339 378.404 37.7339C379.957 37.7339 381.51 38.2884 382.619 39.0647V50.377C381.399 50.8206 379.957 51.0424 378.404 51.0424C375.299 51.0424 373.414 49.6006 373.414 45.9408V46.0517ZM400.474 42.1701C400.474 38.2884 397.702 36.2921 394.375 36.2921C390.937 36.2921 388.164 38.2884 388.164 42.1701V46.9389C388.164 50.5988 391.158 52.595 394.375 52.595C396.925 52.595 398.811 51.486 400.253 50.2661C400.363 50.1551 400.363 50.0442 400.253 49.9333L399.698 49.2679C399.587 49.157 399.476 49.157 399.365 49.157C398.256 50.1551 396.704 51.0424 394.375 51.0424C391.824 51.0424 389.828 49.4897 389.828 46.9389V45.2754H400.253C400.363 45.2754 400.474 45.1645 400.474 45.0536V42.1701ZM398.922 42.1701V43.9445H389.717V42.1701C389.717 39.2866 391.491 37.7339 394.264 37.7339C396.925 37.7339 398.811 39.2866 398.811 42.1701H398.922ZM180.33 81.6519C184.988 81.6519 187.982 78.8793 187.982 74.1104V67.678C187.982 62.9091 185.099 60.0256 180.33 60.0256H173.01C172.899 60.0256 172.788 60.1365 172.788 60.2474V81.4301C172.788 81.541 172.899 81.6519 173.01 81.6519H180.33ZM174.452 61.5783H180.33C184.101 61.5783 186.208 63.7963 186.208 67.678V74.1104C186.208 77.9921 183.99 80.0992 180.33 80.0992H174.452V61.5783ZM191.975 67.3453C191.864 67.4562 191.864 67.5671 191.975 67.678L192.529 68.4543C192.64 68.5652 192.751 68.5652 192.862 68.5652C193.971 67.8998 195.635 67.3453 197.52 67.3453C200.625 67.3453 201.734 68.8979 201.734 71.6705V73.0014C200.625 72.7796 199.073 72.5578 197.52 72.5578C193.638 72.5578 191.198 74.2213 191.198 77.3266C191.198 80.6537 194.082 82.2064 197.52 82.2064C199.738 82.2064 201.845 81.6519 203.176 81.2083C203.287 81.0974 203.398 80.9865 203.398 80.8756V71.6705C203.398 68.0107 201.402 65.9035 197.631 65.9035C195.302 65.9035 193.417 66.5689 192.086 67.4562L191.975 67.3453ZM192.751 77.1048C192.751 74.9976 194.304 73.7777 197.52 73.7777C199.073 73.7777 200.625 73.9995 201.734 74.2213V79.8774C200.625 80.2101 199.184 80.6537 197.52 80.6537C194.747 80.6537 192.751 79.4338 192.751 77.2157V77.1048ZM209.054 76.7721V67.5671H213.712C213.823 67.5671 213.934 67.4562 213.934 67.3453V66.458C213.934 66.3471 213.823 66.2362 213.712 66.2362H209.054L208.943 62.5764C208.943 62.4655 208.832 62.3546 208.721 62.3546H207.723C207.612 62.3546 207.501 62.4655 207.501 62.5764V76.9939C207.501 80.321 209.387 82.0955 212.381 82.0955C212.825 82.0955 213.601 82.0955 214.156 81.9846C214.377 81.9846 214.377 81.8737 214.377 81.7628V80.7647C214.377 80.5428 214.267 80.5428 214.156 80.5428C213.601 80.5428 212.936 80.6537 212.492 80.6537C210.274 80.6537 209.165 79.212 209.165 76.9939L209.054 76.7721ZM229.128 76.2176V71.5596C229.128 68.2325 226.799 65.6817 222.695 65.6817C218.592 65.6817 216.263 68.2325 216.263 71.5596V76.2176C216.263 79.5447 218.592 81.9846 222.695 81.9846C226.799 81.9846 229.128 79.5447 229.128 76.2176ZM217.815 76.2176V71.5596C217.815 69.0088 219.479 67.2344 222.584 67.2344C225.801 67.2344 227.464 69.1197 227.464 71.5596V76.2176C227.464 78.7684 225.911 80.5428 222.584 80.5428C219.368 80.5428 217.815 78.6575 217.815 76.2176ZM243.767 77.4375C243.767 74.2213 240.773 73.5559 238.222 73.0014C235.893 72.5578 233.786 71.8923 233.786 69.8961C233.786 68.2325 235.338 67.2344 237.778 67.2344C239.442 67.2344 241.105 67.678 242.436 68.4543C242.547 68.5652 242.769 68.4543 242.769 68.3434L243.212 67.5671C243.323 67.4562 243.323 67.3453 243.102 67.2344C241.549 66.3471 239.885 65.7926 237.778 65.7926C234.784 65.7926 232.122 67.2344 232.122 69.8961C232.122 73.1123 235.449 73.9995 237.889 74.554C239.885 74.9976 242.103 75.4413 242.103 77.5484C242.103 79.5447 240.329 80.5428 237.889 80.5428C236.004 80.5428 234.34 79.8774 232.787 78.7684C232.677 78.6575 232.566 78.6575 232.455 78.8793L231.9 79.7665C231.789 79.8774 231.789 79.9883 232.011 80.0992C233.675 81.4301 235.671 82.0955 237.889 82.0955C241.549 82.0955 243.767 80.321 243.767 77.5484V77.4375ZM256.41 71.3378H266.391C266.502 71.3378 266.613 71.2269 266.613 71.116V70.1179C266.613 69.8961 266.502 69.8961 266.391 69.8961H256.41V61.5783H266.946C267.168 61.5783 267.168 61.4674 267.168 61.3565V60.2474C267.168 60.1365 267.057 60.0256 266.946 60.0256H254.968C254.857 60.0256 254.746 60.1365 254.746 60.2474V81.4301C254.746 81.541 254.857 81.6519 254.968 81.6519H267.39C267.5 81.6519 267.611 81.541 267.611 81.4301V80.321C267.611 80.2101 267.5 80.0992 267.39 80.0992H256.41V71.3378ZM282.251 77.4375C282.251 74.2213 279.256 73.5559 276.705 73.0014C274.376 72.5578 272.269 71.8923 272.269 69.8961C272.269 68.2325 273.822 67.2344 276.262 67.2344C277.925 67.2344 279.589 67.678 280.92 68.4543C281.031 68.5652 281.253 68.4543 281.253 68.3434L281.696 67.5671C281.807 67.4562 281.807 67.3453 281.585 67.2344C280.033 66.3471 278.369 65.7926 276.262 65.7926C273.267 65.7926 270.606 67.2344 270.606 69.8961C270.606 73.1123 273.933 73.9995 276.373 74.554C278.369 74.9976 280.587 75.4413 280.587 77.5484C280.587 79.5447 278.813 80.5428 276.373 80.5428C274.487 80.5428 272.824 79.8774 271.271 78.7684C271.16 78.6575 271.049 78.6575 270.938 78.8793L270.384 79.7665C270.273 79.8774 270.273 79.9883 270.495 80.0992C272.158 81.4301 274.155 82.0955 276.373 82.0955C280.033 82.0955 282.251 80.321 282.251 77.5484V77.4375ZM285.689 66.7907C285.578 66.9017 285.467 66.9017 285.467 67.1235V87.1971C285.467 87.308 285.578 87.4189 285.689 87.4189H286.798C286.909 87.4189 287.02 87.308 287.02 87.1971V80.7647C288.239 81.541 289.792 81.9846 291.345 81.9846C295.337 81.9846 297.777 79.7665 297.777 75.5522V72.225C297.777 67.678 295.116 65.6817 291.234 65.6817C289.238 65.6817 287.241 66.1253 285.578 66.7907H285.689ZM291.345 80.5428C289.792 80.5428 288.239 79.9883 287.13 79.212V67.8998C288.35 67.4562 289.792 67.1235 291.345 67.1235C294.45 67.1235 296.335 68.5652 296.335 72.225V75.5522C296.335 79.1011 294.561 80.5428 291.345 80.5428ZM301.548 67.3453C301.437 67.4562 301.437 67.5671 301.548 67.678L302.102 68.4543C302.213 68.5652 302.324 68.5652 302.435 68.5652C303.544 67.8998 305.208 67.3453 307.093 67.3453C310.198 67.3453 311.308 68.8979 311.308 71.6705V73.0014C310.198 72.7796 308.646 72.5578 307.093 72.5578C303.212 72.5578 300.772 74.2213 300.772 77.3266C300.772 80.6537 303.655 82.2064 307.093 82.2064C309.311 82.2064 311.418 81.6519 312.749 81.2083C312.86 81.0974 312.971 80.9865 312.971 80.8756V71.6705C312.971 68.0107 310.975 65.9035 307.204 65.9035C304.875 65.9035 302.99 66.5689 301.659 67.4562L301.548 67.3453ZM302.324 77.1048C302.324 74.9976 303.877 73.7777 307.093 73.7777C308.646 73.7777 310.198 73.9995 311.308 74.2213V79.8774C310.198 80.2101 308.757 80.6537 307.093 80.6537C304.321 80.6537 302.324 79.4338 302.324 77.2157V77.1048ZM328.165 80.2101C328.276 80.0992 328.276 79.9883 328.165 79.8774L327.61 79.1011C327.5 78.9902 327.389 78.9902 327.278 79.1011C325.836 80.0992 324.394 80.6537 322.842 80.6537C319.847 80.6537 318.184 78.7684 318.184 76.3285V71.5596C318.184 69.1197 319.847 67.3453 322.842 67.3453C324.394 67.3453 325.614 67.7889 326.945 68.6761C327.056 68.787 327.167 68.6761 327.278 68.5652L327.832 67.7889C327.943 67.678 327.943 67.5671 327.721 67.4562C326.28 66.458 324.616 65.9035 322.842 65.9035C318.96 65.9035 316.631 68.3434 316.631 71.6705V76.4394C316.631 79.6556 318.96 82.2064 322.842 82.2064C324.949 82.2064 326.612 81.541 328.165 80.321V80.2101ZM332.712 81.7628C332.823 81.7628 332.934 81.6519 332.934 81.541V66.458C332.934 66.2362 332.823 66.2362 332.712 66.2362H331.603C331.492 66.2362 331.381 66.3471 331.381 66.458V81.541C331.381 81.6519 331.492 81.7628 331.603 81.7628H332.712ZM333.267 61.911C333.267 61.2455 332.823 60.8019 332.157 60.8019C331.492 60.8019 331.048 61.2455 331.048 61.911C331.048 62.4655 331.492 63.02 332.157 63.02C332.712 63.02 333.267 62.5764 333.267 61.911ZM337.259 67.4562C337.148 67.5671 337.148 67.678 337.259 67.7889L337.814 68.5652C337.924 68.6761 338.035 68.6761 338.146 68.6761C339.255 68.0107 340.919 67.4562 342.804 67.4562C345.91 67.4562 347.019 69.0088 347.019 71.7814V73.1123C345.91 72.8905 344.357 72.6687 342.804 72.6687C338.923 72.6687 336.483 74.3322 336.483 77.4375C336.483 80.7647 339.366 82.3173 342.804 82.3173C345.022 82.3173 347.13 81.7628 348.46 81.3192C348.571 81.2083 348.682 81.0974 348.682 80.9865V71.7814C348.682 68.1216 346.686 66.0144 342.915 66.0144C340.586 66.0144 338.701 66.6798 337.37 67.5671L337.259 67.4562ZM338.035 77.2157C338.035 75.1085 339.588 73.8886 342.804 73.8886C344.357 73.8886 345.91 74.1104 347.019 74.3322V79.9883C345.91 80.321 344.468 80.7647 342.804 80.7647C340.032 80.7647 338.035 79.5447 338.035 77.3266V77.2157ZM358.664 81.9846C358.774 81.9846 358.885 81.8737 358.885 81.6519V80.7647C358.885 80.5428 358.774 80.5428 358.664 80.5428C358.109 80.6537 357.444 80.6537 357.111 80.6537C355.447 80.6537 354.449 79.5447 354.449 76.9939V60.4692C354.449 60.3583 354.338 60.2474 354.227 60.2474H353.118C353.007 60.2474 352.897 60.3583 352.897 60.4692V76.9939C352.897 80.6537 354.449 82.3173 357 82.3173C357.444 82.3173 358.22 82.2064 358.774 82.2064L358.664 81.9846ZM372.859 71.6705C372.859 67.7889 370.087 65.7926 366.76 65.7926C363.322 65.7926 360.549 67.7889 360.549 71.6705V76.4394C360.549 80.0992 363.543 82.0955 366.76 82.0955C369.31 82.0955 371.196 80.9865 372.637 79.7665C372.748 79.6556 372.748 79.5447 372.637 79.4338L372.083 78.7684C371.972 78.6575 371.861 78.6575 371.75 78.6575C370.641 79.6556 369.089 80.5428 366.76 80.5428C364.209 80.5428 362.212 78.9902 362.212 76.4394V74.7758H372.637C372.748 74.7758 372.859 74.6649 372.859 74.554V71.6705ZM371.307 71.6705V73.445H362.102V71.6705C362.102 68.787 363.876 67.2344 366.649 67.2344C369.31 67.2344 371.196 68.787 371.196 71.6705H371.307ZM387.388 77.5484C387.388 74.3322 384.393 73.6668 381.842 73.1123C379.513 72.6687 377.406 72.0032 377.406 70.007C377.406 68.3434 378.959 67.3453 381.399 67.3453C383.062 67.3453 384.726 67.7889 386.057 68.5652C386.168 68.6761 386.39 68.5652 386.39 68.4543L386.833 67.678C386.944 67.5671 386.944 67.4562 386.722 67.3453C385.17 66.458 383.506 65.9035 381.399 65.9035C378.404 65.9035 375.743 67.3453 375.743 70.007C375.743 73.2232 379.07 74.1104 381.51 74.6649C383.506 75.1085 385.724 75.5522 385.724 77.6593C385.724 79.6556 383.95 80.6537 381.51 80.6537C379.624 80.6537 377.961 79.9883 376.408 78.8793C376.297 78.7684 376.186 78.7684 376.075 78.9902L375.521 79.8774C375.41 79.9883 375.41 80.0992 375.632 80.2101C377.295 81.541 379.292 82.2064 381.51 82.2064C385.17 82.2064 387.388 80.4319 387.388 77.6593V77.5484ZM396.371 60.1365C396.149 60.1365 395.927 60.2474 395.927 60.5801V63.02C395.927 63.2418 396.149 63.4636 396.371 63.4636H402.471V81.3192C402.471 81.6519 402.582 81.7628 402.914 81.7628H405.687C405.909 81.7628 406.13 81.6519 406.13 81.3192V63.4636H412.23C412.452 63.4636 412.674 63.3527 412.674 63.02V60.5801C412.674 60.2474 412.452 60.1365 412.23 60.1365H396.371ZM412.23 67.3453C412.119 67.4562 412.119 67.5671 412.23 67.8998L413.45 69.7852C413.561 70.007 413.894 70.007 414.005 69.8961C415.003 69.3415 416.334 68.8979 417.886 68.8979C420.104 68.8979 420.881 69.7852 420.881 72.0032V72.5578C419.993 72.4469 418.884 72.3359 417.886 72.3359C414.005 72.3359 411.232 73.8886 411.232 77.2157C411.232 80.9865 414.448 82.3173 417.997 82.3173C420.215 82.3173 422.544 81.8737 424.097 81.4301C424.319 81.3192 424.43 81.2083 424.43 80.8756V72.0032C424.43 67.678 421.879 65.9035 418.108 65.9035C415.668 65.9035 413.672 66.458 412.119 67.4562L412.23 67.3453ZM414.892 77.1048C414.892 75.8849 415.779 75.1085 418.108 75.1085C418.995 75.1085 420.215 75.2195 421.102 75.3304V78.7684C420.326 78.9902 419.217 79.1011 418.219 79.1011C416.334 79.1011 415.003 78.5466 415.003 77.1048H414.892ZM431.195 81.8737C431.527 81.8737 431.638 81.7628 431.638 81.4301V69.3415C432.304 69.1197 433.413 69.0088 434.522 69.0088C436.74 69.0088 438.071 69.8961 438.071 72.6687V81.4301C438.071 81.7628 438.293 81.8737 438.514 81.8737H441.176C441.398 81.8737 441.62 81.7628 441.62 81.4301V72.5578C441.62 67.678 438.736 65.7926 434.633 65.7926C432.526 65.7926 430.308 66.2362 428.644 67.0126C428.422 67.1235 428.311 67.3453 428.311 67.5671V81.4301C428.311 81.7628 428.422 81.8737 428.755 81.8737H431.306H431.195ZM454.485 66.458C453.597 66.0144 452.377 65.7926 451.157 65.7926C447.387 65.7926 444.503 68.2325 444.503 72.225V75.5522C444.503 80.2101 447.498 82.2064 451.49 82.2064C453.486 82.2064 455.815 81.7628 457.59 81.0974C457.812 80.9865 457.923 80.8756 457.923 80.5428V60.5801C457.923 60.2474 457.812 60.1365 457.479 60.1365H454.817C454.485 60.1365 454.374 60.2474 454.374 60.5801V66.3471L454.485 66.458ZM448.163 75.5522V72.225C448.163 69.8961 449.383 68.8979 451.601 68.8979C452.821 68.8979 453.819 69.2306 454.485 69.6743V78.6575C453.708 78.8793 452.71 79.1011 451.601 79.1011C449.383 79.1011 448.163 78.2139 448.163 75.5522ZM464.91 81.8737C465.131 81.8737 465.353 81.7628 465.353 81.4301V66.5689C465.353 66.3471 465.242 66.1253 464.91 66.1253H462.248C462.026 66.1253 461.804 66.2362 461.804 66.5689V81.4301C461.804 81.7628 462.026 81.8737 462.248 81.8737H464.91ZM465.575 62.0219C465.575 60.9128 464.799 60.0256 463.579 60.0256C462.47 60.0256 461.582 60.8019 461.582 62.0219C461.582 63.1309 462.47 64.0181 463.579 64.0181C464.688 64.0181 465.575 63.1309 465.575 62.0219ZM475.889 82.0955C476.111 82.0955 476.222 81.8737 476.222 81.6519V79.4338C476.222 79.1011 476.111 78.9902 475.778 78.9902C475.335 78.9902 475.002 79.1011 474.669 79.1011C473.338 79.1011 472.673 78.3248 472.673 76.3285V60.8019C472.673 60.4692 472.562 60.3583 472.229 60.3583H469.568C469.235 60.3583 469.124 60.4692 469.124 60.8019V76.5503C469.124 80.2101 470.898 82.4282 474.226 82.4282C474.78 82.4282 475.445 82.4282 476 82.3173L475.889 82.0955Z" fill="white"/>
<path d="M60.4013 110.575C62.3013 110.575 63.9429 110.933 65.3263 111.65C66.7263 112.35 67.7929 113.358 68.5263 114.675C69.2763 115.992 69.6513 117.542 69.6513 119.325C69.6513 121.108 69.2763 122.658 68.5263 123.975C67.7929 125.275 66.7263 126.275 65.3263 126.975C63.9429 127.658 62.3013 128 60.4013 128H54.9763V110.575H60.4013ZM60.4013 126.125C62.6513 126.125 64.3679 125.533 65.5513 124.35C66.7346 123.15 67.3263 121.475 67.3263 119.325C67.3263 117.158 66.7263 115.467 65.5263 114.25C64.3429 113.033 62.6346 112.425 60.4013 112.425H57.2513V126.125H60.4013ZM73.8271 112.075C73.3937 112.075 73.0271 111.925 72.7271 111.625C72.4271 111.325 72.2771 110.958 72.2771 110.525C72.2771 110.092 72.4271 109.725 72.7271 109.425C73.0271 109.125 73.3937 108.975 73.8271 108.975C74.2437 108.975 74.5937 109.125 74.8771 109.425C75.1771 109.725 75.3271 110.092 75.3271 110.525C75.3271 110.958 75.1771 111.325 74.8771 111.625C74.5937 111.925 74.2437 112.075 73.8271 112.075ZM74.9271 114.3V128H72.6521V114.3H74.9271ZM81.0794 116.525C81.4794 115.742 82.0461 115.133 82.7794 114.7C83.5294 114.267 84.4377 114.05 85.5044 114.05V116.4H84.9044C82.3544 116.4 81.0794 117.783 81.0794 120.55V128H78.8044V114.3H81.0794V116.525ZM100.631 120.625C100.631 121.058 100.606 121.517 100.556 122H89.6056C89.6889 123.35 90.1472 124.408 90.9806 125.175C91.8306 125.925 92.8556 126.3 94.0556 126.3C95.0389 126.3 95.8556 126.075 96.5056 125.625C97.1722 125.158 97.6389 124.542 97.9056 123.775H100.356C99.9889 125.092 99.2556 126.167 98.1556 127C97.0556 127.817 95.6889 128.225 94.0556 128.225C92.7556 128.225 91.5889 127.933 90.5556 127.35C89.5389 126.767 88.7389 125.942 88.1556 124.875C87.5722 123.792 87.2806 122.542 87.2806 121.125C87.2806 119.708 87.5639 118.467 88.1306 117.4C88.6972 116.333 89.4889 115.517 90.5056 114.95C91.5389 114.367 92.7222 114.075 94.0556 114.075C95.3556 114.075 96.5056 114.358 97.5056 114.925C98.5056 115.492 99.2722 116.275 99.8056 117.275C100.356 118.258 100.631 119.375 100.631 120.625ZM98.2806 120.15C98.2806 119.283 98.0889 118.542 97.7056 117.925C97.3222 117.292 96.7972 116.817 96.1306 116.5C95.4806 116.167 94.7556 116 93.9556 116C92.8056 116 91.8222 116.367 91.0056 117.1C90.2056 117.833 89.7472 118.85 89.6306 120.15H98.2806ZM102.783 121.125C102.783 119.708 103.067 118.475 103.633 117.425C104.2 116.358 104.983 115.533 105.983 114.95C107 114.367 108.158 114.075 109.458 114.075C111.142 114.075 112.525 114.483 113.608 115.3C114.708 116.117 115.433 117.25 115.783 118.7H113.333C113.1 117.867 112.642 117.208 111.958 116.725C111.292 116.242 110.458 116 109.458 116C108.158 116 107.108 116.45 106.308 117.35C105.508 118.233 105.108 119.492 105.108 121.125C105.108 122.775 105.508 124.05 106.308 124.95C107.108 125.85 108.158 126.3 109.458 126.3C110.458 126.3 111.292 126.067 111.958 125.6C112.625 125.133 113.083 124.467 113.333 123.6H115.783C115.417 125 114.683 126.125 113.583 126.975C112.483 127.808 111.108 128.225 109.458 128.225C108.158 128.225 107 127.933 105.983 127.35C104.983 126.767 104.2 125.942 103.633 124.875C103.067 123.808 102.783 122.558 102.783 121.125ZM117.969 121.125C117.969 119.708 118.252 118.475 118.819 117.425C119.386 116.358 120.169 115.533 121.169 114.95C122.186 114.367 123.344 114.075 124.644 114.075C126.327 114.075 127.711 114.483 128.794 115.3C129.894 116.117 130.619 117.25 130.969 118.7H128.519C128.286 117.867 127.827 117.208 127.144 116.725C126.477 116.242 125.644 116 124.644 116C123.344 116 122.294 116.45 121.494 117.35C120.694 118.233 120.294 119.492 120.294 121.125C120.294 122.775 120.694 124.05 121.494 124.95C122.294 125.85 123.344 126.3 124.644 126.3C125.644 126.3 126.477 126.067 127.144 125.6C127.811 125.133 128.269 124.467 128.519 123.6H130.969C130.602 125 129.869 126.125 128.769 126.975C127.669 127.808 126.294 128.225 124.644 128.225C123.344 128.225 122.186 127.933 121.169 127.35C120.169 126.767 119.386 125.942 118.819 124.875C118.252 123.808 117.969 122.558 117.969 121.125ZM135.18 112.075C134.746 112.075 134.38 111.925 134.08 111.625C133.78 111.325 133.63 110.958 133.63 110.525C133.63 110.092 133.78 109.725 134.08 109.425C134.38 109.125 134.746 108.975 135.18 108.975C135.596 108.975 135.946 109.125 136.23 109.425C136.53 109.725 136.68 110.092 136.68 110.525C136.68 110.958 136.53 111.325 136.23 111.625C135.946 111.925 135.596 112.075 135.18 112.075ZM136.28 114.3V128H134.005V114.3H136.28ZM146.132 128.225C144.849 128.225 143.682 127.933 142.632 127.35C141.599 126.767 140.782 125.942 140.182 124.875C139.599 123.792 139.307 122.542 139.307 121.125C139.307 119.725 139.607 118.492 140.207 117.425C140.824 116.342 141.657 115.517 142.707 114.95C143.757 114.367 144.932 114.075 146.232 114.075C147.532 114.075 148.707 114.367 149.757 114.95C150.807 115.517 151.632 116.333 152.232 117.4C152.849 118.467 153.157 119.708 153.157 121.125C153.157 122.542 152.84 123.792 152.207 124.875C151.59 125.942 150.749 126.767 149.682 127.35C148.615 127.933 147.432 128.225 146.132 128.225ZM146.132 126.225C146.949 126.225 147.715 126.033 148.432 125.65C149.149 125.267 149.724 124.692 150.157 123.925C150.607 123.158 150.832 122.225 150.832 121.125C150.832 120.025 150.615 119.092 150.182 118.325C149.749 117.558 149.182 116.992 148.482 116.625C147.782 116.242 147.024 116.05 146.207 116.05C145.374 116.05 144.607 116.242 143.907 116.625C143.224 116.992 142.674 117.558 142.257 118.325C141.84 119.092 141.632 120.025 141.632 121.125C141.632 122.242 141.832 123.183 142.232 123.95C142.649 124.717 143.199 125.292 143.882 125.675C144.565 126.042 145.315 126.225 146.132 126.225ZM148.682 110.25L143.357 113.1V111.4L148.682 108.275V110.25ZM162.823 114.05C164.49 114.05 165.84 114.558 166.873 115.575C167.906 116.575 168.423 118.025 168.423 119.925V128H166.173V120.25C166.173 118.883 165.831 117.842 165.148 117.125C164.465 116.392 163.531 116.025 162.348 116.025C161.148 116.025 160.19 116.4 159.473 117.15C158.773 117.9 158.423 118.992 158.423 120.425V128H156.148V114.3H158.423V116.25C158.873 115.55 159.481 115.008 160.248 114.625C161.031 114.242 161.89 114.05 162.823 114.05ZM177.954 121.1C177.954 119.7 178.238 118.475 178.804 117.425C179.371 116.358 180.146 115.533 181.129 114.95C182.129 114.367 183.246 114.075 184.479 114.075C185.546 114.075 186.538 114.325 187.454 114.825C188.371 115.308 189.071 115.95 189.554 116.75V109.5H191.854V128H189.554V125.425C189.104 126.242 188.438 126.917 187.554 127.45C186.671 127.967 185.638 128.225 184.454 128.225C183.238 128.225 182.129 127.925 181.129 127.325C180.146 126.725 179.371 125.883 178.804 124.8C178.238 123.717 177.954 122.483 177.954 121.1ZM189.554 121.125C189.554 120.092 189.346 119.192 188.929 118.425C188.513 117.658 187.946 117.075 187.229 116.675C186.529 116.258 185.754 116.05 184.904 116.05C184.054 116.05 183.279 116.25 182.579 116.65C181.879 117.05 181.321 117.633 180.904 118.4C180.488 119.167 180.279 120.067 180.279 121.1C180.279 122.15 180.488 123.067 180.904 123.85C181.321 124.617 181.879 125.208 182.579 125.625C183.279 126.025 184.054 126.225 184.904 126.225C185.754 126.225 186.529 126.025 187.229 125.625C187.946 125.208 188.513 124.617 188.929 123.85C189.346 123.067 189.554 122.158 189.554 121.125ZM208.199 120.625C208.199 121.058 208.174 121.517 208.124 122H197.174C197.257 123.35 197.716 124.408 198.549 125.175C199.399 125.925 200.424 126.3 201.624 126.3C202.607 126.3 203.424 126.075 204.074 125.625C204.741 125.158 205.207 124.542 205.474 123.775H207.924C207.557 125.092 206.824 126.167 205.724 127C204.624 127.817 203.257 128.225 201.624 128.225C200.324 128.225 199.157 127.933 198.124 127.35C197.107 126.767 196.307 125.942 195.724 124.875C195.141 123.792 194.849 122.542 194.849 121.125C194.849 119.708 195.132 118.467 195.699 117.4C196.266 116.333 197.057 115.517 198.074 114.95C199.107 114.367 200.291 114.075 201.624 114.075C202.924 114.075 204.074 114.358 205.074 114.925C206.074 115.492 206.841 116.275 207.374 117.275C207.924 118.258 208.199 119.375 208.199 120.625ZM205.849 120.15C205.849 119.283 205.657 118.542 205.274 117.925C204.891 117.292 204.366 116.817 203.699 116.5C203.049 116.167 202.324 116 201.524 116C200.374 116 199.391 116.367 198.574 117.1C197.774 117.833 197.316 118.85 197.199 120.15H205.849ZM220.142 112.425V118.25H226.492V120.125H220.142V126.125H227.242V128H217.867V110.55H227.242V112.425H220.142ZM235.534 128.225C234.484 128.225 233.543 128.05 232.709 127.7C231.876 127.333 231.218 126.833 230.734 126.2C230.251 125.55 229.984 124.808 229.934 123.975H232.284C232.351 124.658 232.668 125.217 233.234 125.65C233.818 126.083 234.576 126.3 235.509 126.3C236.376 126.3 237.059 126.108 237.559 125.725C238.059 125.342 238.309 124.858 238.309 124.275C238.309 123.675 238.043 123.233 237.509 122.95C236.976 122.65 236.151 122.358 235.034 122.075C234.018 121.808 233.184 121.542 232.534 121.275C231.901 120.992 231.351 120.583 230.884 120.05C230.434 119.5 230.209 118.783 230.209 117.9C230.209 117.2 230.418 116.558 230.834 115.975C231.251 115.392 231.843 114.933 232.609 114.6C233.376 114.25 234.251 114.075 235.234 114.075C236.751 114.075 237.976 114.458 238.909 115.225C239.843 115.992 240.343 117.042 240.409 118.375H238.134C238.084 117.658 237.793 117.083 237.259 116.65C236.743 116.217 236.043 116 235.159 116C234.343 116 233.693 116.175 233.209 116.525C232.726 116.875 232.484 117.333 232.484 117.9C232.484 118.35 232.626 118.725 232.909 119.025C233.209 119.308 233.576 119.542 234.009 119.725C234.459 119.892 235.076 120.083 235.859 120.3C236.843 120.567 237.643 120.833 238.259 121.1C238.876 121.35 239.401 121.733 239.834 122.25C240.284 122.767 240.518 123.442 240.534 124.275C240.534 125.025 240.326 125.7 239.909 126.3C239.493 126.9 238.901 127.375 238.134 127.725C237.384 128.058 236.518 128.225 235.534 128.225ZM246.521 116.175V124.25C246.521 124.917 246.662 125.392 246.946 125.675C247.229 125.942 247.721 126.075 248.421 126.075H250.096V128H248.046C246.779 128 245.829 127.708 245.196 127.125C244.562 126.542 244.246 125.583 244.246 124.25V116.175H242.471V114.3H244.246V110.85H246.521V114.3H250.096V116.175H246.521ZM252.002 121.1C252.002 119.7 252.286 118.475 252.852 117.425C253.419 116.358 254.194 115.533 255.177 114.95C256.177 114.367 257.286 114.075 258.502 114.075C259.702 114.075 260.744 114.333 261.627 114.85C262.511 115.367 263.169 116.017 263.602 116.8V114.3H265.902V128H263.602V125.45C263.152 126.25 262.477 126.917 261.577 127.45C260.694 127.967 259.661 128.225 258.477 128.225C257.261 128.225 256.161 127.925 255.177 127.325C254.194 126.725 253.419 125.883 252.852 124.8C252.286 123.717 252.002 122.483 252.002 121.1ZM263.602 121.125C263.602 120.092 263.394 119.192 262.977 118.425C262.561 117.658 261.994 117.075 261.277 116.675C260.577 116.258 259.802 116.05 258.952 116.05C258.102 116.05 257.327 116.25 256.627 116.65C255.927 117.05 255.369 117.633 254.952 118.4C254.536 119.167 254.327 120.067 254.327 121.1C254.327 122.15 254.536 123.067 254.952 123.85C255.369 124.617 255.927 125.208 256.627 125.625C257.327 126.025 258.102 126.225 258.952 126.225C259.802 126.225 260.577 126.025 261.277 125.625C261.994 125.208 262.561 124.617 262.977 123.85C263.394 123.067 263.602 122.158 263.602 121.125ZM268.897 121.1C268.897 119.7 269.18 118.475 269.747 117.425C270.313 116.358 271.088 115.533 272.072 114.95C273.072 114.367 274.188 114.075 275.422 114.075C276.488 114.075 277.48 114.325 278.397 114.825C279.313 115.308 280.013 115.95 280.497 116.75V109.5H282.797V128H280.497V125.425C280.047 126.242 279.38 126.917 278.497 127.45C277.613 127.967 276.58 128.225 275.397 128.225C274.18 128.225 273.072 127.925 272.072 127.325C271.088 126.725 270.313 125.883 269.747 124.8C269.18 123.717 268.897 122.483 268.897 121.1ZM280.497 121.125C280.497 120.092 280.288 119.192 279.872 118.425C279.455 117.658 278.888 117.075 278.172 116.675C277.472 116.258 276.697 116.05 275.847 116.05C274.997 116.05 274.222 116.25 273.522 116.65C272.822 117.05 272.263 117.633 271.847 118.4C271.43 119.167 271.222 120.067 271.222 121.1C271.222 122.15 271.43 123.067 271.847 123.85C272.263 124.617 272.822 125.208 273.522 125.625C274.222 126.025 274.997 126.225 275.847 126.225C276.697 126.225 277.472 126.025 278.172 125.625C278.888 125.208 279.455 124.617 279.872 123.85C280.288 123.067 280.497 122.158 280.497 121.125ZM288.916 114.3V128H286.641V114.3H288.916ZM290.216 110.425L284.891 113.275V111.575L290.216 108.45V110.425ZM297.644 128.225C296.594 128.225 295.652 128.05 294.819 127.7C293.985 127.333 293.327 126.833 292.844 126.2C292.36 125.55 292.094 124.808 292.044 123.975H294.394C294.46 124.658 294.777 125.217 295.344 125.65C295.927 126.083 296.685 126.3 297.619 126.3C298.485 126.3 299.169 126.108 299.669 125.725C300.169 125.342 300.419 124.858 300.419 124.275C300.419 123.675 300.152 123.233 299.619 122.95C299.085 122.65 298.26 122.358 297.144 122.075C296.127 121.808 295.294 121.542 294.644 121.275C294.01 120.992 293.46 120.583 292.994 120.05C292.544 119.5 292.319 118.783 292.319 117.9C292.319 117.2 292.527 116.558 292.944 115.975C293.36 115.392 293.952 114.933 294.719 114.6C295.485 114.25 296.36 114.075 297.344 114.075C298.86 114.075 300.085 114.458 301.019 115.225C301.952 115.992 302.452 117.042 302.519 118.375H300.244C300.194 117.658 299.902 117.083 299.369 116.65C298.852 116.217 298.152 116 297.269 116C296.452 116 295.802 116.175 295.319 116.525C294.835 116.875 294.594 117.333 294.594 117.9C294.594 118.35 294.735 118.725 295.019 119.025C295.319 119.308 295.685 119.542 296.119 119.725C296.569 119.892 297.185 120.083 297.969 120.3C298.952 120.567 299.752 120.833 300.369 121.1C300.985 121.35 301.51 121.733 301.944 122.25C302.394 122.767 302.627 123.442 302.644 124.275C302.644 125.025 302.435 125.7 302.019 126.3C301.602 126.9 301.01 127.375 300.244 127.725C299.494 128.058 298.627 128.225 297.644 128.225ZM308.63 116.175V124.25C308.63 124.917 308.772 125.392 309.055 125.675C309.339 125.942 309.83 126.075 310.53 126.075H312.205V128H310.155C308.889 128 307.939 127.708 307.305 127.125C306.672 126.542 306.355 125.583 306.355 124.25V116.175H304.58V114.3H306.355V110.85H308.63V114.3H312.205V116.175H308.63ZM316.137 112.075C315.703 112.075 315.337 111.925 315.037 111.625C314.737 111.325 314.587 110.958 314.587 110.525C314.587 110.092 314.737 109.725 315.037 109.425C315.337 109.125 315.703 108.975 316.137 108.975C316.553 108.975 316.903 109.125 317.187 109.425C317.487 109.725 317.637 110.092 317.637 110.525C317.637 110.958 317.487 111.325 317.187 111.625C316.903 111.925 316.553 112.075 316.137 112.075ZM317.237 114.3V128H314.962V114.3H317.237ZM320.264 121.125C320.264 119.708 320.547 118.475 321.114 117.425C321.681 116.358 322.464 115.533 323.464 114.95C324.481 114.367 325.639 114.075 326.939 114.075C328.622 114.075 330.006 114.483 331.089 115.3C332.189 116.117 332.914 117.25 333.264 118.7H330.814C330.581 117.867 330.122 117.208 329.439 116.725C328.772 116.242 327.939 116 326.939 116C325.639 116 324.589 116.45 323.789 117.35C322.989 118.233 322.589 119.492 322.589 121.125C322.589 122.775 322.989 124.05 323.789 124.95C324.589 125.85 325.639 126.3 326.939 126.3C327.939 126.3 328.772 126.067 329.439 125.6C330.106 125.133 330.564 124.467 330.814 123.6H333.264C332.897 125 332.164 126.125 331.064 126.975C329.964 127.808 328.589 128.225 326.939 128.225C325.639 128.225 324.481 127.933 323.464 127.35C322.464 126.767 321.681 125.942 321.114 124.875C320.547 123.808 320.264 122.558 320.264 121.125ZM335.45 121.1C335.45 119.7 335.733 118.475 336.3 117.425C336.866 116.358 337.641 115.533 338.625 114.95C339.625 114.367 340.733 114.075 341.95 114.075C343.15 114.075 344.191 114.333 345.075 114.85C345.958 115.367 346.616 116.017 347.05 116.8V114.3H349.35V128H347.05V125.45C346.6 126.25 345.925 126.917 345.025 127.45C344.141 127.967 343.108 128.225 341.925 128.225C340.708 128.225 339.608 127.925 338.625 127.325C337.641 126.725 336.866 125.883 336.3 124.8C335.733 123.717 335.45 122.483 335.45 121.1ZM347.05 121.125C347.05 120.092 346.841 119.192 346.425 118.425C346.008 117.658 345.441 117.075 344.725 116.675C344.025 116.258 343.25 116.05 342.4 116.05C341.55 116.05 340.775 116.25 340.075 116.65C339.375 117.05 338.816 117.633 338.4 118.4C337.983 119.167 337.775 120.067 337.775 121.1C337.775 122.15 337.983 123.067 338.4 123.85C338.816 124.617 339.375 125.208 340.075 125.625C340.775 126.025 341.55 126.225 342.4 126.225C343.25 126.225 344.025 126.025 344.725 125.625C345.441 125.208 346.008 124.617 346.425 123.85C346.841 123.067 347.05 122.158 347.05 121.125ZM362.134 126.15H368.234V128H359.859V110.575H362.134V126.15ZM376.625 128.225C375.342 128.225 374.175 127.933 373.125 127.35C372.092 126.767 371.275 125.942 370.675 124.875C370.092 123.792 369.8 122.542 369.8 121.125C369.8 119.725 370.1 118.492 370.7 117.425C371.317 116.342 372.15 115.517 373.2 114.95C374.25 114.367 375.425 114.075 376.725 114.075C378.025 114.075 379.2 114.367 380.25 114.95C381.3 115.517 382.125 116.333 382.725 117.4C383.342 118.467 383.65 119.708 383.65 121.125C383.65 122.542 383.333 123.792 382.7 124.875C382.083 125.942 381.242 126.767 380.175 127.35C379.108 127.933 377.925 128.225 376.625 128.225ZM376.625 126.225C377.442 126.225 378.208 126.033 378.925 125.65C379.642 125.267 380.217 124.692 380.65 123.925C381.1 123.158 381.325 122.225 381.325 121.125C381.325 120.025 381.108 119.092 380.675 118.325C380.242 117.558 379.675 116.992 378.975 116.625C378.275 116.242 377.517 116.05 376.7 116.05C375.867 116.05 375.1 116.242 374.4 116.625C373.717 116.992 373.167 117.558 372.75 118.325C372.333 119.092 372.125 120.025 372.125 121.125C372.125 122.242 372.325 123.183 372.725 123.95C373.142 124.717 373.692 125.292 374.375 125.675C375.058 126.042 375.808 126.225 376.625 126.225ZM385.791 121.125C385.791 119.708 386.075 118.475 386.641 117.425C387.208 116.358 387.991 115.533 388.991 114.95C390.008 114.367 391.166 114.075 392.466 114.075C394.15 114.075 395.533 114.483 396.616 115.3C397.716 116.117 398.441 117.25 398.791 118.7H396.341C396.108 117.867 395.65 117.208 394.966 116.725C394.3 116.242 393.466 116 392.466 116C391.166 116 390.116 116.45 389.316 117.35C388.516 118.233 388.116 119.492 388.116 121.125C388.116 122.775 388.516 124.05 389.316 124.95C390.116 125.85 391.166 126.3 392.466 126.3C393.466 126.3 394.3 126.067 394.966 125.6C395.633 125.133 396.091 124.467 396.341 123.6H398.791C398.425 125 397.691 126.125 396.591 126.975C395.491 127.808 394.116 128.225 392.466 128.225C391.166 128.225 390.008 127.933 388.991 127.35C387.991 126.767 387.208 125.942 386.641 124.875C386.075 123.808 385.791 122.558 385.791 121.125ZM400.977 121.1C400.977 119.7 401.26 118.475 401.827 117.425C402.394 116.358 403.169 115.533 404.152 114.95C405.152 114.367 406.26 114.075 407.477 114.075C408.677 114.075 409.719 114.333 410.602 114.85C411.485 115.367 412.144 116.017 412.577 116.8V114.3H414.877V128H412.577V125.45C412.127 126.25 411.452 126.917 410.552 127.45C409.669 127.967 408.635 128.225 407.452 128.225C406.235 128.225 405.135 127.925 404.152 127.325C403.169 126.725 402.394 125.883 401.827 124.8C401.26 123.717 400.977 122.483 400.977 121.1ZM412.577 121.125C412.577 120.092 412.369 119.192 411.952 118.425C411.535 117.658 410.969 117.075 410.252 116.675C409.552 116.258 408.777 116.05 407.927 116.05C407.077 116.05 406.302 116.25 405.602 116.65C404.902 117.05 404.344 117.633 403.927 118.4C403.51 119.167 403.302 120.067 403.302 121.1C403.302 122.15 403.51 123.067 403.927 123.85C404.344 124.617 404.902 125.208 405.602 125.625C406.302 126.025 407.077 126.225 407.927 126.225C408.777 126.225 409.552 126.025 410.252 125.625C410.969 125.208 411.535 124.617 411.952 123.85C412.369 123.067 412.577 122.158 412.577 121.125ZM420.996 109.5V128H418.721V109.5H420.996Z" fill="white"/>
<line x1="8.74228e-08" y1="101" x2="476" y2="101" stroke="white" stroke-width="2"/>
</svg>
